<svg width="800" height="600" xmlns="http://www.w3.org/2000/svg">
 <!-- Created with Method Draw - http://github.com/duopixel/Method-Draw/ -->
 <g>
  <title>background</title>
  <rect fill="#fff" id="canvas_background" height="602" width="802" y="-1" x="-1"/>
  <g display="none" overflow="visible" y="0" x="0" height="100%" width="100%" id="canvasGrid">
   <rect fill="url(#gridpattern)" stroke-width="0" y="0" x="0" height="100%" width="100%"/>
  </g>
 </g>
 <g>
  <title>Layer 1</title>
  <path id="svg_1" d="m0.5,0.45313c0,0 -8,111 93,185c101,74 145,91 178,174c33,83 1,140 86,243l84.5,102.54687l474,-50c0.5,0.45313 7.5,-628.54687 7.5,-630.54687c0,-2 -250,-108.00001 -250.5,-107.45313c0.5,-0.54688 -406.5,3.45312 -407,4c0.5,-0.54688 -265.5,79.45313 -265.5,79.45313z" stroke="#000" fill="#fff"/>
 </g>
</svg>