<svg xmlns="http://www.w3.org/2000/svg" width="24" height="24" viewBox="0 0 24 24"><g fill="none" class="nc-icon-wrapper"><path d="M11.99 5V1l-5 5 5 5V7c3.31 0 6 2.69 6 6s-2.69 6-6 6-6-2.69-6-6h-2c0 4.42 3.58 8 8 8s8-3.58 8-8-3.58-8-8-8zm-1.1 11h-.85v-3.26l-1.01.31v-.69l1.77-.63h.09V16zm4.28-1.76c0 .32-.03.6-.1.82-.07.22-.17.42-.29.57-.12.15-.28.26-.45.33-.17.07-.37.1-.59.1-.22 0-.41-.03-.59-.1s-.33-.18-.46-.33c-.13-.15-.23-.34-.3-.57-.07-.23-.11-.5-.11-.82v-.74c0-.32.03-.6.1-.82.07-.22.17-.42.29-.57.12-.15.28-.26.45-.33.17-.07.37-.1.59-.1.22 0 .41.03.59.1s.33.18.46.33c.13.15.23.34.3.57.07.23.11.5.11.82v.74zm-.85-.86c0-.19-.01-.35-.04-.48s-.07-.23-.12-.31a.389.389 0 0 0-.19-.17.655.655 0 0 0-.5 0c-.07.03-.14.09-.19.17-.05.08-.09.18-.12.31s-.04.29-.04.48v.97c0 .19.01.35.04.48s.07.24.12.32c.05.08.11.14.19.17s.16.05.25.05.18-.02.25-.05c.07-.03.14-.09.19-.17.05-.08.09-.19.11-.32.02-.13.04-.29.04-.48v-.97h.01z" fill="#f2f2f2"></path></g></svg>