<?xml version="1.0" encoding="utf-8"?>
<!-- Generator: Adobe Illustrator 25.2.0, SVG Export Plug-In . SVG Version: 6.00 Build 0)  -->
<svg version="1.1" id="katman_1" xmlns="http://www.w3.org/2000/svg" xmlns:xlink="http://www.w3.org/1999/xlink" x="0px" y="0px"
	 viewBox="0 0 841.89 595.28" style="enable-background:new 0 0 841.89 595.28;" xml:space="preserve">
<g id="fiverr_logo_nav">
	<path class="st0" d="M681.73,295.04h-21.79c-14.06,0-21.79,10.54-21.79,28.81v65.36h-42.17v-94.17h-17.57
		c-14.06,0-21.79,10.54-21.79,28.81v65.36h-42.17V259.9h42.17v19.68c7.03-15.46,16.16-19.68,30.22-19.68h51.3v19.68
		c7.03-15.46,16.16-19.68,30.22-19.68h14.06L681.73,295.04z M504.63,334.4h-87.15c2.11,14.76,11.24,22.49,26,22.49
		c11.24,0,18.98-4.92,21.79-12.65l37.25,10.54c-9.14,22.49-31.63,35.84-59.03,35.84c-45.68,0-66.76-35.84-66.76-66.76
		c0-30.22,18.27-66.06,63.95-66.06c48.49,0,64.66,36.54,64.66,63.95C505.33,328.07,505.33,331.59,504.63,334.4z M464.57,309.8
		c-0.7-11.24-9.14-21.08-23.19-21.08c-13.35,0-21.08,5.62-23.89,21.08H464.57z M303.63,389.21h36.54l46.38-128.61H344.4l-22.49,75.2
		l-22.49-75.9h-42.17L303.63,389.21z M132.16,389.21h41.46v-94.17h40.06v94.17h41.46V259.9h-81.52v-7.73
		c0-8.43,6.33-14.06,15.46-14.06h24.6v-35.14h-30.92c-30.22,0-50.6,18.98-50.6,46.38v10.54h-23.89v35.14h23.89L132.16,389.21z"/>
</g>
<g id="fiverr_logo_nav_dot">
	<path class="st1" d="M707.74,392.73c14.06,0,26-11.95,26-26c0-14.06-11.95-26-26-26c-14.06,0-26,11.95-26,26
		C681.73,380.78,693.68,392.73,707.74,392.73z"/>
</g>
</svg>
